<mxfile host="app.diagrams.net" agent="Mozilla/5.0 (Macintosh; Intel Mac OS X 10_15_7) AppleWebKit/537.36 (KHTML, like Gecko) Chrome/135.0.0.0 Safari/537.36 OPR/120.0.0.0" version="28.0.7" pages="2">
  <diagram name="ansible-win-filebeat" id="ioeJzIKmzpDVDCs3MVX7">
    <mxGraphModel dx="3050" dy="980" grid="1" gridSize="10" guides="1" tooltips="1" connect="1" arrows="1" fold="1" page="1" pageScale="1" pageWidth="1169" pageHeight="827" math="0" shadow="0">
      <root>
        <mxCell id="0" />
        <mxCell id="1" parent="0" />
        <mxCell id="XRNlP5tKe3QkDA2xPTq3-15" style="edgeStyle=orthogonalEdgeStyle;rounded=0;orthogonalLoop=1;jettySize=auto;html=1;exitX=0.5;exitY=1;exitDx=0;exitDy=0;" edge="1" parent="1" source="XRNlP5tKe3QkDA2xPTq3-1" target="XRNlP5tKe3QkDA2xPTq3-2">
          <mxGeometry relative="1" as="geometry" />
        </mxCell>
        <mxCell id="XRNlP5tKe3QkDA2xPTq3-1" value="Ansible" style="rounded=1;whiteSpace=wrap;html=1;" vertex="1" parent="1">
          <mxGeometry x="480" y="40" width="120" height="30" as="geometry" />
        </mxCell>
        <mxCell id="XRNlP5tKe3QkDA2xPTq3-18" style="edgeStyle=orthogonalEdgeStyle;rounded=0;orthogonalLoop=1;jettySize=auto;html=1;entryX=0.5;entryY=0;entryDx=0;entryDy=0;" edge="1" parent="1" source="XRNlP5tKe3QkDA2xPTq3-2" target="XRNlP5tKe3QkDA2xPTq3-17">
          <mxGeometry relative="1" as="geometry" />
        </mxCell>
        <mxCell id="XRNlP5tKe3QkDA2xPTq3-2" value="&lt;b&gt;playbook&lt;/b&gt;:&amp;nbsp;playbook-infra-windows-mssql-config-filebeat" style="rounded=1;whiteSpace=wrap;html=1;align=left;fillColor=#dae8fc;strokeColor=#6c8ebf;" vertex="1" parent="1">
          <mxGeometry x="350" y="120" width="380" height="40" as="geometry" />
        </mxCell>
        <mxCell id="XRNlP5tKe3QkDA2xPTq3-3" value="&lt;b&gt;playbook&lt;/b&gt;:&amp;nbsp;playbook-retail-windows-config-filebeat" style="rounded=1;whiteSpace=wrap;html=1;" vertex="1" parent="1">
          <mxGeometry x="1500" y="80" width="300" height="40" as="geometry" />
        </mxCell>
        <mxCell id="XRNlP5tKe3QkDA2xPTq3-4" value="&lt;b&gt;playbook&lt;/b&gt;:&amp;nbsp;playbook-infra-windows-config-filebeat" style="rounded=1;whiteSpace=wrap;html=1;" vertex="1" parent="1">
          <mxGeometry x="1500" y="130" width="300" height="40" as="geometry" />
        </mxCell>
        <mxCell id="XRNlP5tKe3QkDA2xPTq3-6" value="&lt;b&gt;group&lt;/b&gt;:&amp;nbsp;retail-mssql-server" style="rounded=1;whiteSpace=wrap;html=1;align=left;" vertex="1" parent="1">
          <mxGeometry x="1610" y="410" width="150" height="30" as="geometry" />
        </mxCell>
        <mxCell id="XRNlP5tKe3QkDA2xPTq3-7" value="&lt;b&gt;group&lt;/b&gt;:&lt;div&gt;&lt;div&gt;- retail-api-windows-importance&lt;/div&gt;&lt;div&gt;- retail-api-windows-normal&lt;/div&gt;&lt;div&gt;- retail-service-windows-importance&lt;/div&gt;&lt;div&gt;- retail-service-windows-normal&lt;/div&gt;&lt;/div&gt;" style="rounded=1;whiteSpace=wrap;html=1;align=left;" vertex="1" parent="1">
          <mxGeometry x="1550" y="200" width="200" height="80" as="geometry" />
        </mxCell>
        <mxCell id="XRNlP5tKe3QkDA2xPTq3-9" value="&lt;b&gt;group_vars&lt;/b&gt;:&lt;div&gt;-&amp;nbsp;&lt;/div&gt;" style="rounded=1;whiteSpace=wrap;html=1;align=left;" vertex="1" parent="1">
          <mxGeometry x="1630" y="480" width="120" height="60" as="geometry" />
        </mxCell>
        <mxCell id="XRNlP5tKe3QkDA2xPTq3-10" value="&lt;b&gt;role_vars&lt;/b&gt;:&lt;div&gt;-&amp;nbsp;&lt;/div&gt;" style="rounded=1;whiteSpace=wrap;html=1;align=left;" vertex="1" parent="1">
          <mxGeometry x="1760" y="480" width="120" height="60" as="geometry" />
        </mxCell>
        <mxCell id="XRNlP5tKe3QkDA2xPTq3-11" value="&lt;b&gt;playbook_vars&lt;/b&gt;:&lt;div&gt;-&amp;nbsp;&lt;/div&gt;" style="rounded=1;whiteSpace=wrap;html=1;align=left;" vertex="1" parent="1">
          <mxGeometry x="1460" y="310" width="120" height="60" as="geometry" />
        </mxCell>
        <mxCell id="XRNlP5tKe3QkDA2xPTq3-12" value="&lt;b&gt;group_vars&lt;/b&gt;:&lt;div&gt;-&amp;nbsp;&lt;/div&gt;" style="rounded=1;whiteSpace=wrap;html=1;align=left;" vertex="1" parent="1">
          <mxGeometry x="1590" y="310" width="120" height="60" as="geometry" />
        </mxCell>
        <mxCell id="XRNlP5tKe3QkDA2xPTq3-13" value="&lt;b&gt;role_vars&lt;/b&gt;:&lt;div&gt;-&amp;nbsp;&lt;/div&gt;" style="rounded=1;whiteSpace=wrap;html=1;align=left;" vertex="1" parent="1">
          <mxGeometry x="1720" y="310" width="120" height="60" as="geometry" />
        </mxCell>
        <mxCell id="XRNlP5tKe3QkDA2xPTq3-25" style="edgeStyle=orthogonalEdgeStyle;rounded=0;orthogonalLoop=1;jettySize=auto;html=1;entryX=0.5;entryY=0;entryDx=0;entryDy=0;" edge="1" parent="1" source="XRNlP5tKe3QkDA2xPTq3-16" target="XRNlP5tKe3QkDA2xPTq3-23">
          <mxGeometry relative="1" as="geometry" />
        </mxCell>
        <mxCell id="XRNlP5tKe3QkDA2xPTq3-16" value="&lt;b&gt;role&lt;/b&gt;:&amp;nbsp;fetch-environment-vars" style="rounded=1;whiteSpace=wrap;html=1;align=left;fillColor=#ffe6cc;strokeColor=#d79b00;" vertex="1" parent="1">
          <mxGeometry x="435" y="290" width="210" height="30" as="geometry" />
        </mxCell>
        <mxCell id="XRNlP5tKe3QkDA2xPTq3-26" style="edgeStyle=orthogonalEdgeStyle;rounded=0;orthogonalLoop=1;jettySize=auto;html=1;entryX=1;entryY=0.5;entryDx=0;entryDy=0;" edge="1" parent="1" source="XRNlP5tKe3QkDA2xPTq3-17" target="XRNlP5tKe3QkDA2xPTq3-23">
          <mxGeometry relative="1" as="geometry">
            <Array as="points">
              <mxPoint x="670" y="220" />
              <mxPoint x="670" y="381" />
            </Array>
          </mxGeometry>
        </mxCell>
        <mxCell id="XRNlP5tKe3QkDA2xPTq3-68" value="false" style="edgeLabel;html=1;align=center;verticalAlign=middle;resizable=0;points=[];" vertex="1" connectable="0" parent="XRNlP5tKe3QkDA2xPTq3-26">
          <mxGeometry x="-0.6669" y="1" relative="1" as="geometry">
            <mxPoint as="offset" />
          </mxGeometry>
        </mxCell>
        <mxCell id="XRNlP5tKe3QkDA2xPTq3-17" value="" style="rhombus;whiteSpace=wrap;html=1;" vertex="1" parent="1">
          <mxGeometry x="510" y="200" width="60" height="40" as="geometry" />
        </mxCell>
        <mxCell id="XRNlP5tKe3QkDA2xPTq3-19" style="edgeStyle=orthogonalEdgeStyle;rounded=0;orthogonalLoop=1;jettySize=auto;html=1;entryX=0.5;entryY=0;entryDx=0;entryDy=0;" edge="1" parent="1" source="XRNlP5tKe3QkDA2xPTq3-17" target="XRNlP5tKe3QkDA2xPTq3-16">
          <mxGeometry relative="1" as="geometry" />
        </mxCell>
        <mxCell id="XRNlP5tKe3QkDA2xPTq3-70" value="true" style="edgeLabel;html=1;align=center;verticalAlign=middle;resizable=0;points=[];" vertex="1" connectable="0" parent="XRNlP5tKe3QkDA2xPTq3-19">
          <mxGeometry x="0.1134" y="1" relative="1" as="geometry">
            <mxPoint as="offset" />
          </mxGeometry>
        </mxCell>
        <mxCell id="XRNlP5tKe3QkDA2xPTq3-22" value="filebeat_infra_type is defined" style="text;whiteSpace=wrap;fontStyle=1;fontSize=10;verticalAlign=middle;" vertex="1" parent="1">
          <mxGeometry x="470" y="240" width="140" height="20" as="geometry" />
        </mxCell>
        <mxCell id="XRNlP5tKe3QkDA2xPTq3-29" style="edgeStyle=orthogonalEdgeStyle;rounded=0;orthogonalLoop=1;jettySize=auto;html=1;entryX=0.5;entryY=0;entryDx=0;entryDy=0;" edge="1" parent="1" source="XRNlP5tKe3QkDA2xPTq3-23" target="XRNlP5tKe3QkDA2xPTq3-28">
          <mxGeometry relative="1" as="geometry" />
        </mxCell>
        <mxCell id="XRNlP5tKe3QkDA2xPTq3-71" value="true" style="edgeLabel;html=1;align=center;verticalAlign=middle;resizable=0;points=[];" vertex="1" connectable="0" parent="XRNlP5tKe3QkDA2xPTq3-29">
          <mxGeometry x="0.0491" relative="1" as="geometry">
            <mxPoint as="offset" />
          </mxGeometry>
        </mxCell>
        <mxCell id="XRNlP5tKe3QkDA2xPTq3-36" style="edgeStyle=orthogonalEdgeStyle;rounded=0;orthogonalLoop=1;jettySize=auto;html=1;entryX=0;entryY=0.5;entryDx=0;entryDy=0;" edge="1" parent="1" source="XRNlP5tKe3QkDA2xPTq3-23" target="XRNlP5tKe3QkDA2xPTq3-31">
          <mxGeometry relative="1" as="geometry">
            <Array as="points">
              <mxPoint x="370" y="381" />
              <mxPoint x="370" y="541" />
            </Array>
          </mxGeometry>
        </mxCell>
        <mxCell id="XRNlP5tKe3QkDA2xPTq3-67" value="false" style="edgeLabel;html=1;align=center;verticalAlign=middle;resizable=0;points=[];" vertex="1" connectable="0" parent="XRNlP5tKe3QkDA2xPTq3-36">
          <mxGeometry x="-0.6533" relative="1" as="geometry">
            <mxPoint as="offset" />
          </mxGeometry>
        </mxCell>
        <mxCell id="XRNlP5tKe3QkDA2xPTq3-23" value="" style="rhombus;whiteSpace=wrap;html=1;" vertex="1" parent="1">
          <mxGeometry x="510" y="361" width="60" height="40" as="geometry" />
        </mxCell>
        <mxCell id="XRNlP5tKe3QkDA2xPTq3-27" value="filebeat_infra_type is defined" style="text;whiteSpace=wrap;fontStyle=1;fontSize=10;verticalAlign=middle;" vertex="1" parent="1">
          <mxGeometry x="470" y="401" width="140" height="20" as="geometry" />
        </mxCell>
        <mxCell id="XRNlP5tKe3QkDA2xPTq3-33" style="edgeStyle=orthogonalEdgeStyle;rounded=0;orthogonalLoop=1;jettySize=auto;html=1;entryX=0.5;entryY=0;entryDx=0;entryDy=0;" edge="1" parent="1" source="XRNlP5tKe3QkDA2xPTq3-28" target="XRNlP5tKe3QkDA2xPTq3-31">
          <mxGeometry relative="1" as="geometry" />
        </mxCell>
        <mxCell id="XRNlP5tKe3QkDA2xPTq3-45" style="edgeStyle=orthogonalEdgeStyle;rounded=0;orthogonalLoop=1;jettySize=auto;html=1;dashed=1;" edge="1" parent="1" source="XRNlP5tKe3QkDA2xPTq3-28" target="XRNlP5tKe3QkDA2xPTq3-37">
          <mxGeometry relative="1" as="geometry" />
        </mxCell>
        <mxCell id="XRNlP5tKe3QkDA2xPTq3-28" value="&lt;b&gt;role&lt;/b&gt;:&amp;nbsp;config-filebeat-windows" style="rounded=1;whiteSpace=wrap;html=1;align=left;fillColor=#ffe6cc;strokeColor=#d79b00;" vertex="1" parent="1">
          <mxGeometry x="435" y="451" width="210" height="30" as="geometry" />
        </mxCell>
        <mxCell id="XRNlP5tKe3QkDA2xPTq3-30" value="&lt;b&gt;role&lt;/b&gt;:&amp;nbsp;register-consul-service" style="rounded=1;whiteSpace=wrap;html=1;align=left;fillColor=#ffe6cc;strokeColor=#d79b00;" vertex="1" parent="1">
          <mxGeometry x="435" y="620" width="210" height="30" as="geometry" />
        </mxCell>
        <mxCell id="XRNlP5tKe3QkDA2xPTq3-34" style="edgeStyle=orthogonalEdgeStyle;rounded=0;orthogonalLoop=1;jettySize=auto;html=1;entryX=0.5;entryY=0;entryDx=0;entryDy=0;" edge="1" parent="1" source="XRNlP5tKe3QkDA2xPTq3-31" target="XRNlP5tKe3QkDA2xPTq3-30">
          <mxGeometry relative="1" as="geometry" />
        </mxCell>
        <mxCell id="XRNlP5tKe3QkDA2xPTq3-72" value="true" style="edgeLabel;html=1;align=center;verticalAlign=middle;resizable=0;points=[];" vertex="1" connectable="0" parent="XRNlP5tKe3QkDA2xPTq3-34">
          <mxGeometry x="0.0124" y="1" relative="1" as="geometry">
            <mxPoint as="offset" />
          </mxGeometry>
        </mxCell>
        <mxCell id="XRNlP5tKe3QkDA2xPTq3-31" value="" style="rhombus;whiteSpace=wrap;html=1;" vertex="1" parent="1">
          <mxGeometry x="510" y="521" width="60" height="40" as="geometry" />
        </mxCell>
        <mxCell id="XRNlP5tKe3QkDA2xPTq3-35" value="register_to_consul == &quot;true&quot;" style="text;whiteSpace=wrap;verticalAlign=middle;fontStyle=1;fontSize=10;" vertex="1" parent="1">
          <mxGeometry x="470" y="561" width="140" height="20" as="geometry" />
        </mxCell>
        <mxCell id="XRNlP5tKe3QkDA2xPTq3-37" value="" style="rounded=0;whiteSpace=wrap;html=1;fillColor=none;dashed=1;" vertex="1" parent="1">
          <mxGeometry x="730" y="336" width="390" height="260" as="geometry" />
        </mxCell>
        <mxCell id="XRNlP5tKe3QkDA2xPTq3-40" style="edgeStyle=orthogonalEdgeStyle;rounded=0;orthogonalLoop=1;jettySize=auto;html=1;entryX=0.5;entryY=0;entryDx=0;entryDy=0;" edge="1" parent="1" source="XRNlP5tKe3QkDA2xPTq3-38" target="XRNlP5tKe3QkDA2xPTq3-39">
          <mxGeometry relative="1" as="geometry" />
        </mxCell>
        <mxCell id="XRNlP5tKe3QkDA2xPTq3-38" value="&lt;b&gt;task&lt;/b&gt;:&amp;nbsp;include_vars&lt;br&gt;&lt;blockquote style=&quot;margin: 0px 0px 0px 10px; border: none; padding: 0px;&quot;&gt;vars/{{ &#39;filebeat_&#39; +&amp;nbsp;&lt;b&gt;filebeat_type&lt;/b&gt;&amp;nbsp;+ &#39;_type&#39; }}.yaml&quot;&lt;/blockquote&gt;" style="rounded=1;whiteSpace=wrap;html=1;align=left;fillColor=#d5e8d4;strokeColor=#82b366;" vertex="1" parent="1">
          <mxGeometry x="765" y="360" width="295" height="30" as="geometry" />
        </mxCell>
        <mxCell id="XRNlP5tKe3QkDA2xPTq3-43" style="edgeStyle=orthogonalEdgeStyle;rounded=0;orthogonalLoop=1;jettySize=auto;html=1;entryX=0.5;entryY=0;entryDx=0;entryDy=0;" edge="1" parent="1" source="XRNlP5tKe3QkDA2xPTq3-39" target="XRNlP5tKe3QkDA2xPTq3-41">
          <mxGeometry relative="1" as="geometry" />
        </mxCell>
        <mxCell id="XRNlP5tKe3QkDA2xPTq3-39" value="&lt;b&gt;task&lt;/b&gt;:&amp;nbsp;set fact&lt;br&gt;&lt;blockquote style=&quot;margin: 0px 0px 0px 10px; border: none; padding: 0px;&quot;&gt;output_logstash_host&lt;/blockquote&gt;" style="rounded=1;whiteSpace=wrap;html=1;align=left;fillColor=#d5e8d4;strokeColor=#82b366;" vertex="1" parent="1">
          <mxGeometry x="765" y="430" width="295" height="30" as="geometry" />
        </mxCell>
        <mxCell id="XRNlP5tKe3QkDA2xPTq3-41" value="&lt;b&gt;task&lt;/b&gt;: Apply config&lt;br&gt;&lt;blockquote style=&quot;margin: 0px 0px 0px 10px; border: none; padding: 0px;&quot;&gt;&lt;b&gt;filebeat.yml.j2&lt;br&gt;&amp;nbsp; &amp;nbsp;&amp;nbsp;&lt;/b&gt;&lt;span style=&quot;background-color: transparent;&quot;&gt;filebeat_inputs&lt;br&gt;&lt;b&gt;&amp;nbsp; &amp;nbsp;&amp;nbsp;&lt;/b&gt;&lt;/span&gt;&lt;span style=&quot;background-color: transparent;&quot;&gt;output_logstash_host&lt;br&gt;&amp;nbsp; &amp;nbsp; inventory_hostname&lt;br&gt;&amp;nbsp; &amp;nbsp; filebeat_type&lt;/span&gt;&lt;/blockquote&gt;" style="rounded=1;whiteSpace=wrap;html=1;align=left;fillColor=#d5e8d4;strokeColor=#82b366;" vertex="1" parent="1">
          <mxGeometry x="765" y="486" width="295" height="96" as="geometry" />
        </mxCell>
        <mxCell id="XRNlP5tKe3QkDA2xPTq3-46" value="" style="curved=1;endArrow=classic;html=1;rounded=0;exitX=1;exitY=0.5;exitDx=0;exitDy=0;entryX=1;entryY=0.5;entryDx=0;entryDy=0;dashed=1;" edge="1" parent="1" source="XRNlP5tKe3QkDA2xPTq3-38" target="XRNlP5tKe3QkDA2xPTq3-41">
          <mxGeometry width="50" height="50" relative="1" as="geometry">
            <mxPoint x="1200" y="461.0000000000002" as="sourcePoint" />
            <mxPoint x="1240" y="410.2" as="targetPoint" />
            <Array as="points">
              <mxPoint x="1100" y="441" />
            </Array>
          </mxGeometry>
        </mxCell>
        <mxCell id="XRNlP5tKe3QkDA2xPTq3-60" value="&lt;span style=&quot;font-size: 12px; text-align: left; text-wrap-mode: wrap; background-color: rgb(236, 236, 236);&quot;&gt;filebeat_inputs&lt;/span&gt;" style="edgeLabel;html=1;align=center;verticalAlign=middle;resizable=0;points=[];rotation=90;" vertex="1" connectable="0" parent="XRNlP5tKe3QkDA2xPTq3-46">
          <mxGeometry x="0.0312" y="-17" relative="1" as="geometry">
            <mxPoint x="17" y="-4" as="offset" />
          </mxGeometry>
        </mxCell>
        <mxCell id="XRNlP5tKe3QkDA2xPTq3-49" value="&lt;b&gt;extra_vars:&lt;/b&gt;&lt;div&gt;&lt;div style=&quot;margin-left: 10px;&quot;&gt;&lt;br&gt;&lt;/div&gt;&lt;/div&gt;" style="rounded=1;whiteSpace=wrap;html=1;fillColor=#e1d5e7;strokeColor=#9673a6;align=left;" vertex="1" parent="1">
          <mxGeometry x="-40" y="36" width="330" height="60" as="geometry" />
        </mxCell>
        <mxCell id="XRNlP5tKe3QkDA2xPTq3-50" value="&lt;b&gt;play_vars&lt;/b&gt;/&lt;div&gt;&lt;div style=&quot;margin-left: 10px;&quot;&gt;&lt;span style=&quot;color: light-dark(rgb(0, 0, 0), rgb(255, 255, 255)); font-size: 10px; background-color: transparent;&quot;&gt;&lt;b&gt;filebeat_type&lt;/b&gt;: infra&lt;br&gt;&lt;/span&gt;&lt;span style=&quot;color: light-dark(rgb(0, 0, 0), rgb(255, 255, 255)); font-size: 10px; background-color: transparent;&quot;&gt;&lt;b&gt;output_logstash_var_name&lt;/b&gt;: mon_logstash_mssql_host&lt;/span&gt;&lt;div style=&quot;font-size: 10px; margin-right: 0px;&quot;&gt;&lt;b&gt;register_to_consul&lt;/b&gt;: &quot;true&quot;&lt;/div&gt;&lt;/div&gt;&lt;/div&gt;" style="rounded=1;whiteSpace=wrap;html=1;fillColor=#dae8fc;strokeColor=#6c8ebf;align=left;" vertex="1" parent="1">
          <mxGeometry x="-40" y="131" width="330" height="80" as="geometry" />
        </mxCell>
        <mxCell id="XRNlP5tKe3QkDA2xPTq3-52" value="&lt;b&gt;role_vars&lt;/b&gt;/&lt;b&gt;vars_files&lt;/b&gt;&lt;div&gt;&lt;div style=&quot;margin-left: 10px;&quot;&gt;vars/{{ &#39;filebeat_&#39; + &lt;b&gt;filebeat_type&lt;/b&gt;&amp;nbsp;+ &#39;_type&#39; }}.yaml&quot;&lt;/div&gt;&lt;/div&gt;" style="rounded=1;whiteSpace=wrap;html=1;fillColor=#ffe6cc;strokeColor=#d79b00;align=left;" vertex="1" parent="1">
          <mxGeometry x="-40" y="491" width="330" height="80" as="geometry" />
        </mxCell>
        <mxCell id="XRNlP5tKe3QkDA2xPTq3-53" value="&lt;b&gt;groups_vars:&lt;/b&gt;&lt;div&gt;&lt;div style=&quot;margin-left: 10px;&quot;&gt;&lt;span style=&quot;background-color: transparent; font-size: 10px;&quot;&gt;&lt;b&gt;filebeat_infra_type&lt;/b&gt;&lt;/span&gt;&lt;span style=&quot;background-color: transparent;&quot;&gt;&lt;font color=&quot;rgba(0, 0, 0, 0)&quot;&gt;&lt;span style=&quot;font-size: 10px;&quot;&gt;: &lt;/span&gt;&lt;/font&gt;&lt;span style=&quot;font-size: 10px;&quot;&gt;retail-mssql&lt;/span&gt;&lt;/span&gt;&lt;br&gt;&lt;/div&gt;&lt;/div&gt;" style="rounded=1;whiteSpace=wrap;html=1;fillColor=#b0e3e6;strokeColor=#0e8088;align=left;" vertex="1" parent="1">
          <mxGeometry x="-40" y="371" width="330" height="70" as="geometry" />
        </mxCell>
        <mxCell id="XRNlP5tKe3QkDA2xPTq3-54" value="&lt;b&gt;host_vars:&lt;/b&gt;&lt;div&gt;&lt;div style=&quot;margin-left: 10px;&quot;&gt;&lt;br&gt;&lt;/div&gt;&lt;/div&gt;" style="rounded=1;whiteSpace=wrap;html=1;fillColor=#f8cecc;strokeColor=#b85450;align=left;" vertex="1" parent="1">
          <mxGeometry x="-40" y="256" width="330" height="65" as="geometry" />
        </mxCell>
        <mxCell id="XRNlP5tKe3QkDA2xPTq3-55" value="" style="curved=1;endArrow=classic;html=1;rounded=0;entryX=0;entryY=0.75;entryDx=0;entryDy=0;exitX=0;exitY=0.5;exitDx=0;exitDy=0;dashed=1;" edge="1" parent="1" source="XRNlP5tKe3QkDA2xPTq3-50" target="XRNlP5tKe3QkDA2xPTq3-52">
          <mxGeometry width="50" height="50" relative="1" as="geometry">
            <mxPoint x="-130" y="326" as="sourcePoint" />
            <mxPoint x="-110" y="506" as="targetPoint" />
            <Array as="points">
              <mxPoint x="-140" y="286" />
              <mxPoint x="-150" y="416" />
              <mxPoint x="-110" y="496" />
            </Array>
          </mxGeometry>
        </mxCell>
        <mxCell id="XRNlP5tKe3QkDA2xPTq3-59" value="&lt;span style=&quot;font-size: 12px; text-align: left; text-wrap-mode: wrap; background-color: rgb(236, 236, 236);&quot;&gt;filebeat_type&lt;/span&gt;" style="edgeLabel;html=1;align=center;verticalAlign=middle;resizable=0;points=[];rotation=0;" vertex="1" connectable="0" parent="XRNlP5tKe3QkDA2xPTq3-55">
          <mxGeometry x="-0.298" y="15" relative="1" as="geometry">
            <mxPoint x="-4" y="218" as="offset" />
          </mxGeometry>
        </mxCell>
        <mxCell id="XRNlP5tKe3QkDA2xPTq3-61" value="" style="curved=1;endArrow=classic;html=1;rounded=0;exitX=0;exitY=0.5;exitDx=0;exitDy=0;dashed=1;" edge="1" parent="1" source="XRNlP5tKe3QkDA2xPTq3-53">
          <mxGeometry width="50" height="50" relative="1" as="geometry">
            <mxPoint x="-130" y="486" as="sourcePoint" />
            <mxPoint x="-40" y="546" as="targetPoint" />
            <Array as="points">
              <mxPoint x="-90" y="426" />
            </Array>
          </mxGeometry>
        </mxCell>
        <mxCell id="XRNlP5tKe3QkDA2xPTq3-63" value="&lt;span style=&quot;background-color: rgb(236, 236, 236);&quot;&gt;filebeat_infra_type&lt;/span&gt;" style="edgeLabel;html=1;align=center;verticalAlign=middle;resizable=0;points=[];" vertex="1" connectable="0" parent="XRNlP5tKe3QkDA2xPTq3-61">
          <mxGeometry x="0.277" y="7" relative="1" as="geometry">
            <mxPoint x="-11" y="-26" as="offset" />
          </mxGeometry>
        </mxCell>
        <mxCell id="XRNlP5tKe3QkDA2xPTq3-65" value="&lt;span style=&quot;&quot;&gt;&lt;b&gt;&lt;u&gt;Step 1:&lt;br&gt;&lt;/u&gt;&lt;/b&gt;&lt;/span&gt;&lt;blockquote style=&quot;margin: 0px 0px 0px 20px; border: none; padding: 0px;&quot;&gt;&lt;span style=&quot;&quot;&gt;&lt;b&gt;filebeat_type&lt;/b&gt;: infra&lt;/span&gt;&lt;div&gt;&lt;span style=&quot;&quot;&gt;vars/{{ &#39;filebeat_&#39; +&amp;nbsp;&lt;/span&gt;&lt;b style=&quot;&quot;&gt;filebeat_type&lt;/b&gt;&lt;span style=&quot;&quot;&gt;&amp;nbsp;+ &#39;_type&#39; }}.yaml&lt;br&gt;&lt;/span&gt;&lt;/div&gt;&lt;div&gt;&lt;span style=&quot;&quot;&gt;&lt;b&gt;&lt;font style=&quot;font-size: 14px;&quot;&gt;⇢&amp;nbsp;&lt;/font&gt;&lt;/b&gt;&lt;/span&gt;vars/{{ &quot;filebeat_infra_type&quot; }}.yaml&lt;/div&gt;&lt;/blockquote&gt;&lt;div&gt;&lt;span style=&quot;&quot;&gt;&lt;b&gt;&lt;u&gt;Step 2:&lt;br&gt;&lt;/u&gt;&lt;/b&gt;&lt;/span&gt;&lt;/div&gt;&lt;blockquote style=&quot;margin: 0px 0px 0px 20px; border: none; padding: 0px;&quot;&gt;&lt;div&gt;&lt;b&gt;filebeat_infra_type&lt;/b&gt;: retail-masql&lt;/div&gt;&lt;div style=&quot;margin-left: 0px;&quot;&gt;vars/{{ &quot;filebeat_infra_type&quot; }}.yaml&lt;/div&gt;&lt;div style=&quot;margin-left: 0px;&quot;&gt;&lt;b&gt;&lt;font style=&quot;font-size: 14px;&quot;&gt;⇢&amp;nbsp;&lt;/font&gt;&lt;/b&gt;&lt;span style=&quot;&quot;&gt;vars/&lt;/span&gt;retail-masql&lt;span style=&quot;&quot;&gt;.yaml&lt;/span&gt;&lt;/div&gt;&lt;/blockquote&gt;" style="text;html=1;align=left;verticalAlign=middle;whiteSpace=wrap;rounded=0;spacingLeft=5;" vertex="1" parent="1">
          <mxGeometry x="-460" y="576" width="300" height="150" as="geometry" />
        </mxCell>
        <mxCell id="XRNlP5tKe3QkDA2xPTq3-66" value="" style="endArrow=none;dashed=1;html=1;rounded=0;entryX=0;entryY=0.75;entryDx=0;entryDy=0;" edge="1" parent="1" source="XRNlP5tKe3QkDA2xPTq3-65" target="XRNlP5tKe3QkDA2xPTq3-52">
          <mxGeometry width="50" height="50" relative="1" as="geometry">
            <mxPoint x="-110" y="706" as="sourcePoint" />
            <mxPoint x="-60" y="656" as="targetPoint" />
          </mxGeometry>
        </mxCell>
      </root>
    </mxGraphModel>
  </diagram>
  <diagram id="9lqRssZIzFSL313M3Gyu" name="ansible-linux-filebeat">
    <mxGraphModel dx="1366" dy="764" grid="1" gridSize="10" guides="1" tooltips="1" connect="1" arrows="1" fold="1" page="1" pageScale="1" pageWidth="1169" pageHeight="827" math="0" shadow="0">
      <root>
        <mxCell id="0" />
        <mxCell id="1" parent="0" />
        <mxCell id="Vn4GBnkIO0CKTdpmMgCY-1" value="" style="shape=image;verticalLabelPosition=bottom;labelBackgroundColor=default;verticalAlign=top;aspect=fixed;imageAspect=0;image=data:image/png,iVBORw0KGgoAAAANSUhEUgAAAIkAAACKCAYAAACesGlnAAAAAXNSR0IArs4c6QAAAERlWElmTU0AKgAAAAgAAYdpAAQAAAABAAAAGgAAAAAAA6ABAAMAAAABAAEAAKACAAQAAAABAAAAiaADAAQAAAABAAAAigAAAABjiJgLAAArlUlEQVR4Ae2dCZxUxbX/T/d09wwwMOwuoEHUIAxgFJWA26gIoo9o/gYTY14WExPNpjExi3mJk+RlN8Y8l0RNUPOS+FezSlwIiqOyRAVUYEBEUEQQGZYBhmGWnun3/d2Z2/T0dPfc7unuaZb6fG73vbdOVZ06derUqVOn6vrsAAmRSvMvmW1Fu/tapKLKWnxmkYiZ7+GZ5h+93QZHfNbH/DbAIlYaMOvD84kAHAlcwHy8dUOEp9jgs6ZWsw1ALCvyWQNpdrVwRfxWt73Jtqssq9yX5uFq8w2pMV/NEItc9jBxB0DoSJD9uEJiiCUzrFew0Ur9fjvcH7EJrRF7j99sOHEnUrXDuPpQ4V4889pCXF7rD59YE1crKephmL3cb+J6hfu3yW29z2+L/U32bkmL7XlxiDXPLLeIrxL4AyB4JVJBVFWMEO21lTQPPfj15620MWKjfC1WjnSoAGI8MYdTsaHAF+UJ8WbKeZdy36H8l7nmw4Ur6kP26oQJ1iBmEe6Savsj8+xfTMKQUlVl/qG9bTD9+jhE/kU0zkQqMZZGGMx9QdQHJBiRYBoYhf9ni1rtKV/E1mxusZ0VFdaqIWl/GooKgqgQMxrU49wHbnhsC2umW3FTs41p9duFPp9dANHHEdmXWA0dBRvaGWYX/4sZe+b6ffbYzl22bvIi25usroVWmWiDFApiT1dYYOgQ8/euMb/G9hNrbEBLyM5AYbyc4eQM8DyCq+Dw9kg/6ShvcT0Dk//V32oLJF367jbfupHWWqjSpeCIvXiCBXuNNF9rnR0FEaczmM9EVJxKr+vlsSH2F7B66rSQBvhDIGJzR821d7jnVeGFgmASid2qCivStHHsHhve2mwfRlZcAbnGcDFjPaBDI7VbjGT5baDZ/vneCtvuTqM1vS4ExikIJhELLJ1uQ4KtdikIfZb+NI5XBzpzqNqxQczyAvW/y99iTywfaLWFMhPqESaR5ND0VVPDNyqsZE/Azkb9vA4incsl+8VBG2gQKbRPct1WUmTPHv+4NcpQCL145Shjzn8+CZR3JqGGvpUzLahKtuy0kegb14PEZbwvy2fFC70saFKDon5va4vdtS1sb7nK7cyHrZW4vDIKbZTfoAo21VjvSK19nML/TOmfOcQgndsAmqCh2dewHj84OGSXlg6zks5Q+XlDm+UnUGlniHn1OTuuJWDfQlH7MO8OtBlLroi5m4a61xewW0afZhtWVlugGkGcrylz3pikeqaFIrtsBvaOGyn0JKiZt7Jz1XJ5zlc2lkV0rpt6N9sC2ZDyxSQ5GW4kNR6aaUW6dF9dYaUML9chPu+CM04+xCAZsZfa6nTpKXUh+9TIBit26ZxRbmkkyskCWDnMcVKdBTaHrLX1SBvhD9iPkBvXgpfM6IdC9yhQRkc7J9BiZVtH2Ss1Iat/aKXZ97qXZ8rUOWES5vd+Zi6RkWEbDeffDgb/j+tgs3ukJHw3IzU7nMjK93sGNtqLh6+1Hd3ML2XyrOoFms9LqVKJLbU2CSedXyASJ6TE4FBkdyhAH7Rnfa32zdFn2AvKSLan7mSYKG1WJUkF/ht9+pgvssPOwQnnNxQ4NlGhh95ljQLq5CMYyifWrLdlQ2fZ+qzlHJORCul2kIIqlz1ldFjQpmLtuY3bkd3OeD/OAGLIp+QNqjCP/zVQp44Fywi06ce7E4k/l395y2Vn8hCxlXTMq8fMsflybsrmzCcrekK5PMCGIOpqbUq7DnIMlT+YwwYq/zvk/oNFZbau/GFrhingFefH92aFFe8OWTnccSWvPsrVX3HdCj4bg3nh7pVT7Qvk80y38opLDO6ZBWrsuOMptaTI0GKbAhnu5P1BzSAQdDlOUdfXb7Vn5CMycp35J8xoc4iWV51WuqM0w28G29FHePNj3h2p91kIq8jvqrFzbYG75gNOTpmZ5p0xk2iIObXGgtt2W0vxEDsd5elukDg+U0QOkHRr8X/5dFF/W7R3nUVOWWLNXdVLTlZDQo5bxK3Adl+itBW4DEa9akujLc2Gu0G3xsM3zcK9B9koxtqbwe1gZxD8se0XTdttYXhnm+NUW3ul/pUX3q7d9hC99bepIdOKHQ8uPxoYsqPSSpUEOGNJIlH26r/t6HCr3UMmU5Lkf9C8hgZzWbH9z7FnWo1T6Uq2VHgQ8zQmnd4iy6baCfTY2aQ9LktE0xDzYKTFrmuste3dcY/MWJKsXmp9Wlvtvw4xSFuTMsxUqTH0JFuFFwZxYNsZaVuTvU6rPt+WW1Z+xXwz/UX2teAgC0k3yjTXtBNKgmgcDe+1a6jUxzIt+ABLt40l/eccBbUyMyXxnCoLs3hXBV3C2aIN7aO1s6v5uVy4qe10pZt/RlPgwUGbwbz/6xRWnG6BByj8npYW2ygJQqPQgTMMflsLozSTR0btkqTUUkTKjdWLbG3DVpsvJ3Pyj07Jk6Tp8NozV7mVlz8IhX6TXAZ1yGn/eqA61sBVx6Wdd+udy+xNnt9sv3/LiTPbw7/8T5UmafAFzScJmxTAQwQzRM/t4SG7KAiIH4Ox/rsMO8O31HgfCt0MPFVKDCKXwzV1VtIQtm/SVU5zM9hP/rWesQW8V9PUb9HX1/L8gqygSIDaQIgN4E3EUFE2f0WKgojlFguiWPQGbiD7issirTYJ+KO4jgZOXvyarrqNGog0W2/NVExrJxkOOeTXBxTcPHnMYvDZ2Qw7nytudBaM0xrSPDEJlfbtnY1JeZB9CCny4Syinsus1PvfgDEW0NjPsEhVXd8Cc+yweufkgYr2xqRualTgaJ99IXapoQJYtjn8U+4P4SYrbQ041s0bgb6gPcVQTOKn0ktXVbOFc18u6d3ByWeROFdDuA/MPte31FGO/5YOZp4rtHyKjYbHNZ8v5EU7NbSmoE9CkDktfpsXKLUtmMWbXKIA4LhRur2d+nRgjg5weoCJtA9G2xti0yw/366lw9wChNPzyed3vZvsiyOqrDFZnm7esf9iRj2X77IyFJq/kfas2Pgc3D/XUmQfHT+RUxESdI5E5XkSbQsnWS96yleoQCEzSC2tfTsNNyNQYlejpD0gQsQyiAigBnSnqKka04Frh9VimZtGeWiG4Ctydt9t07MCZV+Ix9jJqfJsg+z8q+kp6y4zaIxTO8dm/c3pgVa7htMYguoAXnJPySROryOXfn0cMXiZlwx7EGYvlfmjTNF1Gx2lNGeo6LCcllZbCX3mxhRyBAz6jVem2tCYd0lv3emoGLDXYHsvgF8hv3w4hoshP9nQgp9PZdtBP247J0M2JSdJWy/rZQNCLfZ7MnDH32R5FcL7ezBxXztpEWeCOJ07tygtn2rnU84DlOLM9LiXe8AslN7vjH3KUZR57BzUKJoIjGF1+NXz7Hh2D/wPomhaZ8jcvQHXP+xttS+uG2B1WqA9BztNstJSSpIKFDZtvSTxucky6JH3+E5A6BWdyvbZB8tKbXI+GERla4cdAvt+bjV70pAj/eJTDEW3w0Anu/qG4uJDUaMVs6x/AfrBrHwziHAB14uL/XaB6wcUj1/sM/TsGMTlVRVWpB1jvQ+zI1mP+Bs5agtEIYQwCM/m+i47qd+DVUgNFG+vmV3UYp864UzbIT0il0hL0h4RtKFYpu4Ap0viynqb50eg59+ZVr8V9FtDc9j8LIaWwFhap/kIU6rzgRkQly5vj+D2JAS6Qme/pS1JnPk+qLaE7TIaYnzesE5REI2wk0r9HKa9ZkWZrdq9y+YB/pcESc4PF9nFVVXmT9WTE6TL6FXddqvB/iDr8z/AsSUmk+HcX8O7vxe12rzWsFUB9zQTgKfRXf4Eg0jH6zEGEZ7gdgaH6kzTiKHnZAGGThyKh9rRZHIFDeNM0RJD5ecteGha+/XGYvtvLaJpNuCcFOS3O3gvw1hsKAH+c4NDdoT2zcZGZPtexJXNZfTptjYcti9Aq9soI9ZzHVQcg5wcikbQKu/hXy6LPbZlk7JjQwlW3itfq7KBsS/j7zsxCbWKVNMjOP7gQoDL4xP0wPMGtPFrQ0V2/7oSa5Qjj+vMM+4JW4akuxOc4pWuU6jHh1SXXOKr4UxiWnaUslbb1lBs38Y6+zHK/AcMsbWLsoVbcxcwuY/22aSm4jadE4QgWefQiUkEoiOo+JPCGtBzD4YNHJ53XcN2+3NTaZIGD9qfwO/ZOBwxrttnqqe1+Wao8u4VB+f5MT59LEFlaKsfgtTaZM31221ucZF9nKdLGFZugup/AHYF+DjrQzwv4fod777B/00gELW1eEYmu4DF4HY5U3cdXwpanQPvOweIezHgD5AiH/P2zgjwBsRqGCu+1LjN/uouwcdXAvwcJVur0jTIfSSTJ3o0AH8zVtDvqAG1sCX/UtkldOSWf6j1D4WxT/hsIPnIthGCk/w8I7gcYjXSg97Baltb3GBrtjXanknTrFFSA/HqDMGSuLFe6cJHBqpYhdk53uswlOumtnNXGoO296SJtk0wUnwZFj8Pnj+k/NIo4vm+QeohAS8dPdnmy3YST2eeOwbnlMMWu58K99gaDUix/8++wcbo++VDO2EJvhZJuFwb0eUuSKv9kppc1bE2thnmuax8jj336gesb0u9Hcc6zlk0/mTqdwxNejzwWsQLcsXTAhBnOKgjYjUP64GQsvwChqg3d4dtT6oZAXCegqzZ/fraVwH+L65iT4lyARSx2/s02w2JlhWihJEFUFy0apqdRFfS1G1YLnDxkKf0i5sZ338gHaQrQw94wge4/02xcTj+aOHq2Lgy/j+N+zhS4hJgTwd2EP/JlHGinBClS1xe0iG2kd/T5Peojq3SVFszKUmpTI6vkjRhObk0ELRbqMgnyT9Z2XGoZP1xLaaDC0c/Za/F59xBJ6nCPsIi04VQqqcYRBSa7QvYr8QgEuVd9VbgnYZ9dQAGtojN4jl2Gqr6fhCIuwD6IPdD+U/GIIJVXk5+ekgQJHEOB+JygH6LpfTvKxbZFbJKa8alLa68T6uRxVy1+LUg4X5A2ucSlJmvV0djOjgzUWH7mKTSIoOLGDuZNycCzNO7VRieKsc8Zu+mO30VPEv4v4fQz8bhKhHudcqpBt5Hk7iM4h5LYJYzkCh3F3NkVclAO03DnjqapHK6zLK6zN4i0fdBYGNcOfl6DFL2jDc4w064x+IfJQgAEQwrx1PxnlrprQexm51pLbgIn3SpwwcA5Pq3Kd10MfAUm3YQUT9I53oo4LOrDy+yMkkUMYuXnGKlZShg85Hkiab0XrLKBsyE+oCNFu6x+EeZhIr6mG5eREnyuOqJ8Hccev4qPDIpHH+XY/AM/xWJZcnsiXAkw91/I7J/6NtjR1RUdRr2UuKk4UoAjGf3UYenUwLnLnJYaxGbzxkCdbnFRJlk9QeYgvny4s/glh37v4lh5naNzbEvvd4zZS8v8rP62jYjk97QU0HW3s9igv+NVnc17Egx9cL4msEdN9GaT5hrm5D1t1IByJH3oC//TCuvsV6xC39RJmnea6MAGJd3tCiQHvhAU9Be0aIiRI5ysBdcNKshxT0kOtsLfB5gqAKruwG7U07jqpOXMlVvH7YTwbJg+AzP//SSLtswlFsO7rIbRUN0HwatIxP8kGhMnm5A6g0Wvf5X34VxN1Z3VbR6pq7l0+1YJMht3E/qKk3e4yN2Hm4Av9JKusrWYqNw7goPwbAqKxfIe4DtCWvsUfLXjZ1VOp8kWzzDMSidA1JdVqKrSqYbj6L215pGq1YvcntSV3mAZOSl6TbYH7YfQdSzu4LvwfhprFrf8Pp06+vqHF3horoJplnm+4g91hV8DuI1ZL5PzOrm7dceUX2SjFc94RKwmWnMAxUV6a3Wapwvxk+TtDqLrZCDj4a+sqnFPuEgWbmP8MmQVuPIVUPSBOgHgMu7bgLO416u2HdCt1/2Bc42OwL+PTwZ4rl6DzJzi5pstSyWXsqQyNbFWs256DGfJ01PL0B2iTaNrm/+Xd97gE3wIiklSeTWKHHPyvcCGGVJl4VkGYDOd6K/xHFpcHLGNILeyEcNeZKfQz5DI1rav7awk86rciezt1ao0Z+01pFvfLtDmxEQ/ivtw3qX+ahNBHTc47abtnmEW+e5y4TZA+gfCO/TT50ezM9R5O+pN2cNj4itZffc0+oxXhVWrS2Fi9mHbFaRNTzylBFMckGvJsdd0VFivRRbJestm8uAfdsLfLZgYNJe2EvGagrvrJiDhI8KDM9WAZ7z8TuHvSBIQKB96tdV2tcqWJzjJCHgQl3BFmB8P+G+7CIbEGuD6ApPDccMOS91BZfNeHiiCFXgJLlFyPPOz+Epsq29L5uFeMirFSSq5GEmbhWjpkrjxmNL0baOU1LBFnhchb/RTkvHGls9xPZCq0XUCzLkL1DmMB1NLsurHx9HObtkZXynpVvIaw/Xu1ybueSLoXfxQUxxujYyLZpjxUsmJFdAxSASu4unoG37HG+54vjM9qPnvkjtD6s+XnDWUKy1HdqoCvjdXtJkCwY8+/GJ7KCm7gE0Ebkq9ulO5rT4XkSpTumZjVL5Mib2rZEwu/OLrD+78ccTP51CzyK+b3s5MKpd5TcLlw60m5o2d22Ox0VuJGkmdwfPQkjLTGHy4F6OQ/Rar/hQ703A1nB18Lzzmj5DuGG9imz4mBm2KoAQ0yEnmqZlFrRRym8/RVw8wXL3tlh3vvYMn8P7ahbeV1N4/jbXxPb3LJriSdZsr2OruSPVRK8CO8qKhXYm8IPb0+7Pf8dhFdJs0jOThIL2LlPBpbTVsXms+OHwxFD0xWpESbfOxFhIRp8on8RnS8uSG320/aH8X/ZPdrZdyZAxJ6aisu59efTu5F75xEeqsKOguJxOOoTP/h2gl5TCSfxTNW/heL7DR5o3vUFnDcrPKBAUnn6GgRPJNu1xnhquRgJ9ZezptlRasJyCneMZkuFYab4xE+1Vdt5dC4iGJjcci9by8adTrJay+NEfZI9xExwA/6ctmWL90mEUbEp5nQZD4xDXUHVSdh06X+xOl+4yhP1MO/h1hIGsto6ClWIqq2murhOfwKnYbz+jwKgiBrNdzJn0xxiMlIhwzUEbBcx700WygOEP7x2y/lJgE9U3Cd6aEED2vAVchtt01QBiPIg0SS/47EW2Qz3qbAfNwAOEMebJpog9S7lyclIYAeOcwX/CcRo4KdforgdM6M3CX39mL+vjaySm0QcEZEuRJVoH4el0aQbatbDIDuAHxafJ1TN0d2ZhAUZG8EozsLc11dEKqXJziFBqezjZ5wlKng6s9Aw55ozVsDWzkicsq/zGBvk3SPwdKEEK+Bc5eWCpKkQfVSv4kJZ9V8IE5bWYJYLoioPxN91poeJBFmQarJlht2ahKiuTgN6adghTpXUaq9JO2Z5Aw9PKKfYy7FHPq7ZNScyyHJ2mM4OIhKHMS8sUy5ym06zyMx0EeCxB3Yh2CruPOcUoQeYU72CQyWxhK1y9jNQZ4e7QopK0Qef05H16CRa+JfOjdpQOKKOoZIJnhzwOPWROgUyI72ekCmZapJhLwwrjq5gsymiMf+Gy4AEmLzIlUoGl08bqaEN5xG0w3mTjHIngMUEiMM4c07gc3f8K82zGETgDNThR7ofeZYMCtLHDG5noJJI+x2phTlPaTJDReoBvkOOZ39tNz5BSm0xxhYHcYy/TZWg3+0L7bwKh+1BUl7Oc4dCQez93IXby9aKS2kwWIC7Ie3zCnEXQ/ryTJ160Y3Gf29AuQDJhEiE2bdnzziait9PFkgpHVve1smaOtCStO9zJVe9lKbTYXjsxAkCbYBQRNm2jX7r45Ql+K5zxy/Fz7NVk5WlYVpzopf+VU+0s0vyH7vMVcIh2cNCfiJ9WIOV4PJcukzTxeuSULKo6sUDw7Y5DsR7u66DEgqokq6MoyrIPHEhDUX2kyOrECC4zqAFi78UcLoMoDgkzij/Zi/IWYEpt3jdZXCUNwC+tEKAGX1q50CrSSaWDaMp32imI0RtIt29/Li56/jLHvSCRjYTlZHsNgr2WTlmFDAuxNxUHOV4jLsQyRVwUZ7Y7OxoAyU+gII5msV0qTf4ky/jXOezphhEkuHXMrrZjrtULXMmi/w73xFVU4Rexw06GKW8l3eiYwlZxisDvx5R3OtJqH0g/p9et3/div79bMOpk2yPLairGiK0lusl7Yp9zfU97NvPRq60qJ4AYa8D2SudOP5BmHFrEvWyzvG1Vkf353SrbOLPCOay/7Sx2spQyOvo8vN+K7CIq+g3ka3QNBgLtRCL9ZO8WW9OuBMNDHQNl+KpqrHVI0J5iaPwQsZnqUR0z7rmnZuj9QjpKP64WUmZHZNJG3aimDi52hEcAhNVQexhwMlsbgcPhsB9zCvIVfJVyTvUCW3tCkVWvWGDN5ZjaWZMZCYOcC7KnUEas4tlAo9+ya5c93IgfZarKVMB4fNTnRaDkeHNEKthCj6Oiq1EIX/aCJ7D0K4v06Wvy7TjJS5oswmzioOd3NCIEOGdqJ0uRMo93J8gMpkqcRK1ailptO4wn6TSQ94l6PgLMbg/57Vb5mqQqWERaPNsCpcNsXXODzeP5ilTwhR4HfZ7Z3OBt2V/DUYQZX7XPRkBH2ZXyGTbzHaDNOkffz35VadmbslU6eWn5ewj5aVEuEYM4RcFEy3GmcRSjVGWTl69sqPk1hjOAPwaTpGSqVHn1dBy470QZ/HvssQ6pcJJJgDSQyjmBKH/2kTakancG2ra7+F8vte0gIeU1nwFa2TmaEnsp9KVSDtbDcMdxiHNRWl70kqYQYRCtT8H0S/VxJU/4VZpPR2di4XZdPj0lyxLQhlNmW73o7mzzJNMNWco4nWwmM8ZJ4qQM6kmu36yOtkSP+S3v9kdpUotIuLe6n+3cuaXNypqy4u2RcNNY6nuKF9gswujLotHO2DYF89lbFOAYTrJYUOqsIjaCUwEqBKQhJTVwW6zGR4x4j9EjH/cCX2AwD3NcVxXKfBGO351mcUlxbfPt1dCdz7AXNWS1W6Bjz0DbXswL7ZPJZwihxF3CkON5m4CIu7nFmY39Aq7amE9ku1nWKur6qzFVtkebwV3J2FWeLz1vg1BKZnYFl4P4bRjvovzglx0jsNe03TL6MgeFJsuyYm8kuad8okRymeRDBC8jfm4hXp9tLfSg5YSf0hXWpGM8U6WCYU53lC0q/2FJc3G7BZyyHV9KHYnNveNKl2d8BrEucJm+IuWlXGn7sszqjNeWkN3LuHkf6RitnJBIhLtx7SB5/5MX3519muxB4e0sYHaBgoZerXNVVzj7oWQ87NNFklxEr5LS6masWYa9PdyaUKrmc5uI0C5sbv4jHG9Z63xnt8v86VXOuWJycyzqbXt8QfsJiea0J3TqEpeJJ10nLk22HiMw8QNNfrv5mCo+98YsQfh7ybyigi+VFzuuFPIBznfYw9C4WEY0t2C/ENIYieW1mpf5H3JksfXZx3XEgVaI1ZNc5JL+V1pEHuSjT7MNHHV9LSmeSgrbMxFihgeRj18/+XHHSuwZCzHSy1XWjzW1q0mU11XfdiQ3sA/qpViEo45D9SF8GzBwxUbm8f6KXgPtLOdcMWwDXZUrQupEAvXOE56yNUVh59Sjx3nf0lXaPMSH4ZA/MW28vvyxzDodls5pdBz52+Q9QMNXwv6OB/pFRcqE2dgeIs6Q40kkZhl7TfG+0hdnJENKSJro8lqGGIUvV11FmrtIEx1LvabPFhwI7+W6NdRk142ZY+9kku/Kac7a1HWkzbeFVei2wgNPjP+X1Tt+yO0ViDIJldN2vid5X9sel9c/es754ZBdXoXjkY6i0L8XBIS3rvfNs434nWjG84iXdDmAWQsiNzY12Q9HVXX51axOxUsH0GovPeQL1Oe0TgD5efEW1t3nRc9YJTvKJOq5dN819N8X8oNPp1JCEOiruARMlD3E6/pGbC7oJ1rJzveUsRaa3YcOMXNlP7vtpKrMOpmGTiTpebSDdJFou8TWL9f3MMfzW8PwAEGM4pYXXUPQHJ6XtWNqbR4Q01yAvP7LscZn3xlfa1eOmpueuNY6UCPuCuAb69Ak9Bu5ZE3O9lRyD4RcSL73NzXao5kyh5R1zdaW/duOR5JX0jJ528YJ7rFBM9zHzqnqbHmnnm1BkkR3jIlj6NH/5HaEnnsgaBr+Gz6KdEPsXL0rPNgyqY9GPwzckXGwd7Pf+R8crCPL5WSk5bHU1dNQFpePHsVs9eTxHAfPzQo12LOjMhhaYvONfuqtxXEsl12kRwK0W842l0vGP2nr4hGIShKAIuLq4W/bOg6ceQbAEfHAeXqWRLuypMnegoC3pPq0mvDRWM7JBqUcqPtlGr8Dg1CnN2COO0Y/Ycsx2D3ZWmdHYW6egHp2GraA95P8CC4piAO5orTgXqGZayuXDI3v0IUWwWyLGLNrmpqt+n1zbadoRlyn4HY4xes+EZzwlpK+epiVhBvta2RycaeM8vgCRB/bFra3EuEL/p0D7ogXk+hPxPTuHJu3N/I1+RbWylkyRiUrVZVC+l0OvprZxM4IIjThD4oD9iOturqfiVU+6gwjd1hp0G8DafhBNNdopIP843zaRgAjaWOptqC+wudRahvrbWfLbtsTm4fySRScvNlXpGNH9d0bvvvXx9dspYjHAHqLLyR30YDj+d+Iv0ZRSQNn0qLwkldJovzy8Q4mqOH6kD7UKN0ovsz43uPEszo7H3G6gAY4Pz5BHp/7Qbzv1YWsAcLfn2xRbMVUG04DXwtesQxCUlvBt2fE6KZjJmPxVl7kWcfxDnsqKmw9hFms+Phe5PR23jubxiqIXhKbS+J76RcrttvAlYvs/TDbFMSIvlE8hPEtKK0PQ85ezq+V0XJ+SRjp5bNruO8xBmmvxTzEplO7eBooHvw7BgFpCloyyD5KjHpncUeI/D6BICd12Pf3hmyW1mxUus7uGEHPfBMdYWjIvg3O37WOM4ImGuer+G782p3KkQ9gHYPq6r6JjXffx7+LfXbT6V/wUvwlnfgm8Adg2qt4fSpXV40vnKI4cN8ToQ5p+uExc3HBAJdEddT4nzBwYMhcInpqOhzFCcSHMJT8qKTRrj++xvrKH0OHu+hbv0OL7WTiPwlwx3r47Dkq+xf1alU6UcVVgBsXH+++F4wb4mHc9+7/6DobUeK3/4FBfsO7M7m6YhAlJdseDnzGlu/aLRAWyerYkbjtgLJTtH/BaRavmpRBD4e+lP/tYIhjtHbY4cIvVOd8UFCWyRFxuNWpod5tTG/NJC4PT4/qeQLk025j+fzr77j9GFesHgeIYzd5AcBndPH8ClePWYUpOzZoGj9rwhn7jiaLjXTvE+ok7vjfGLBHgy32bzI6y03Qg//qmZ+O+O3YsTvte0066jzinDPfASUY5DFmH7Ic5z5UojS/YEe3hO0WuOHsmAIlvV5DAv4RLfDZcMBW9g62Kd8NddYvGLDxwE8FZib/w2LS5fc2YnOwED8jjz8KBtXEoZMkiQWTTykAd1OZvbHve/Be+J5Lbf4AcW/ivoOyyvMWFMM731dlO50vX1R21kOygTtlw4vm02nWkWb7JvSZEpNvE/LlfvC4pKbZfjzudHtOzubLiq2+bqM17Gi1d8f8y57wlbFRrZXNZm1HliZtoJh8s327g5ncPazB1HWVMfVLHp7G+QXDQ/9mlEagZiSHLJAYn93BZq8bJi3CfyOBopotLGUA05A3ZqezUvt78u3fnjefz7NbGXp+unyg1Uoii5niyxVueq9/jIBH8f9LYC6Nh8vlMwjcW9psnx9R1TYZEC7JykspSdQbd+/Gp5Tv2JPBlmSZFMj7DerBuDYym8tdcBudbRF9IOynKMllEBX6l8Yi+3nrQNstBVsvRPz4y32v/7GTbSOzi28Bs0jPeQrrKOdO2Z9c3FKVm5JJZO2UUcjf36qo7X2pMiqAuIG+FvvSkICdp8/XqjFl2HKdmbKJn+wuTa12AmWcFZPv24wZN5/0uG3Fe6sl5Qb4mES6Zfq5hj+tYOdDoWXTpt1TEuAAHVl9PQTgvQU+rTqS018fBPoUbyl6DEqrskswZM2mC8+nMV/vNYBjyx/O7iyteqp9Eyb5sVtLCPlrvGGukze8eqf73uu/vsLBFPqvwJ/rNU2GcPNwQ/wEU7AabXpzJymp8ko4u4lPII7D6rh+9C77ORrbPcT3i4cpoOf+NNF5DPjn0lgbIfxLnASyiEadh/7+Tu+wbZGYzQRf+Xto8zadRZvkp8SwQhNrOgvHZsggwuWUJ20n1uOF3OaSSd6FJj8cP9E26SRvrzQgTddBoltWWDZtl7Q02g8g0JdJ5Slt17nnBUJOyLupxzZKW8r9mwwNG9AFdlGLVax+1uBU7eOUZl63BTazRzif4zBelAPXH6k0nHQjyEMb4wdzyR7iiGveb2Q2M2XcZA7aqUxuvGvLOfkvjDyd/CVNvBjikmeUOCZMx/kB9fop3/bDghDD4onho289SRJBaxxexzRubNh+ybdsNOScHs2l8G9oZ+cTpmWgOpL7Ng7nBAQafweSoZ5FFR9e2G1M4jMfjCOg3iQcAIyjhCpdokCnCQeLkE4wSKJ4z+8iNF7baQyek6QB+Ch7qX+N0SBtHD0xibguwklFDkKVtmHVIqtEvM7i+ag0kCw4UKhVBMkkFdoCFe0QAPBEUZgKegRgEl93GAVDoT47l/VAtfRFke/Lc5/sufVWLRcRT9qtgJWxLi1/41m/kJJ+xut8aOMuroX83w+yH+1LsMyeDtJIpBOAD6WTxgPsdoTiTaPntG2TSJdBlL9nJnGRcXfQaVWWd3dzSTAf7KE/RJikKbcjTdKghiYFSif3S4a2Cnq6M7SlkUUq0GYif4ntaHa7e2oq2KRxnoab2NRub6Eye1dNs58x1TwSEXNZLMzBeE9vu2jsLpsFfd5Jp/6SzBjerLkZhdifVT1PyvrvMe7d1auks99qOjimLUmimTP+aqW1NWA3wjDPRt8fpDfQ4FQ6zOX8O+s6+k9FChduC4cGsl4d4jzMT/JuWKo06cSR1yOoBN/RupGMe65fTTp5uLApK+ICJftXRTXGMXWbiLjV4TJjk8EeJO83Uc+ra5razk85J4HnueigIUZ2Cp1ri8uDryFsV0PIHxLVR/FZCM/xvcOrq0ttteNT001dKXNJQk3EIGKU6jJbzLbGz6O8rcxCBffnLI6EJr8aHLJLR3R2rN5Xr0qLyO9W/q8NLCXAIN8lMlsMoknFNTr21Dl2i7L2FZzZHXXqflDPkK7Sfv65XB6lpR/MYTst80f20dzLvtrXtG1SHUoEkZKqxcFmPPYZnq6ip80gQpvKuh3I598wyNVsElshF09tcPNidu+q4KwwiVsISPpWXGBns9B2B5Uf474/iP81/KyALs8iaXe20+EIxO+Z3Etf1VaObIWF2FmuaayxVcrQi2e/14KzyyTtEqV9o9SvQWK8V0QOwWVOATEhM6Mvrepr1dmUIC5GWWUSN1NJFIae0+gxP0GinM37nJTjlnew/kNUOTXpo9w3YoFbG7+/KFt06ZbimhSJSj5Tus2W8qHoK4GRe8Ehg1tSYmUcIUPZfexq+PyWvfYa59755C2XcW4pEuash0uakHlk+Xl2GKLwBh4+Bx7xPqkpUDsUlYICWs2+lcW0u7c32fYKravRMbVuJJqnSJdRVG4kCai4yG5tsW3BXvY9XlwP+uszwvJQon0U8OGFb/YFNtTfEiizWveIDs0uXZrvA87OXTbXCRJidNGprJDusPD6gfbSkCZ7mYqMAPBoLm4PhTQooBMNHmWW9KXyyTZvwQ5rqUFqyJKaK+ZwcctbQ8mWov0dfYbYMLSta5AqnwWJWCdiF6dD/50p8C7D9Z0cxvabE/+Vf4f0nA03nevJ6Sx9rWhPjW1k20Mlc/pPA7OAKyfKVqLy98N3kh46VOhyeZQ1b7Md0vXyXY+8FhhbQYlIZ88JZ4RR7U9Q8cPzXfkCL+9NaHQ3JyP8r3xSpZQKX9Et33jnlUniK6ch6M0qC3G8xMn4UlyNan4JMNr3ezCHWuxLf8P28WtfX3tFC4AiBt8Gck5U6AnC9CyTqGNUthFhyXzri2f7dIhwFddkrlw4A/cEjb2WWUdjzAX4np27rUpfFJPkdZ2FsrEG4xWReLgeZRIXGZcYMikPLuLkoYBNRbJ8mvfvB6bYhTtA/+uo19NIj3sbIzZv3QCry8eMJR1a5lVxTYWYGETxsquMnWN/YD/tpXjv/Cev/sEl49GBFXy2lfo9xBD7kUCJXbGqvz2yO+yczyZC5F3vSEXcgpAkqRCsruC8sRKOlIJpoN6FwMpDP5gqTQHH6ayXNRD9McwAj4Z62dJRj5iGmYJiinj6FTSTaBhyEEZvkYLLB4yPRtvXMvt/EKG9P8O4CroO4Kdj+jZg5/g39Xm8yG/PtPa1TXIp1Fn6XZ0uSfoeD4VO4CiBNBNy1ybkWY7TTjlrF6ehu0yF+OMAHM5VKMqupMNGmEOnGj3OnhznpGXXndFlfmC4Lfyw3zBJLClFZGn98t9cvdT6NNXbEA5kOZUx/iTG+HFUSn4sA7ik9AZi0+bgXgYv7S3eyrWEsvW1jxcxn7/CZvWaWK+0HJSdlyxzTcCcVUIMIslSN8EaWCJfzxRxHczz0OvTrW9z2A5jtnAYjVUO05wM8wzjvx8NOByYw0BKCnuo/b9LHEknv41mABFezpaJd/iv5dIwshg3xNdwi9i0Z7dtdqauknrt4eGytg9AkwdZ7J8B3A/coCGqqsr8xY0WHNIf7/RWO4rVMM5tNM755ePWEeccE52lCk+1NSIE4Qk3Bw79FWVYMwgzpO1myNAWSY6Rs02cLbGpX5O1jOCUoP258b22/H4rSbxUUAwiOH0+Dt9PSYLVFVW20kvDwhAIibbdAMpDw5sMWi7jja+Af6oUcygcEBRQg7uXWyE9u/fuf6J38XFOPjHDiRt/IP//H7kGcLa5oFzkAAAAAElFTkSuQmCC;" vertex="1" parent="1">
          <mxGeometry x="120" y="420" width="39.71" height="40" as="geometry" />
        </mxCell>
      </root>
    </mxGraphModel>
  </diagram>
</mxfile>
